<?xml version="1.0" standalone="no"?>
<!DOCTYPE svg PUBLIC "-//W3C//DTD SVG 1.1//EN" "http://www.w3.org/Graphics/SVG/1.1/DTD/svg11.dtd" >
<svg xmlns="http://www.w3.org/2000/svg">
<metadata>Generated by IcoMoon</metadata>
<defs>
<font id="icomoon" horiz-adv-x="1024">
<font-face units-per-em="1024" ascent="960" descent="-64" />
<missing-glyph horiz-adv-x="1024" />
<glyph unicode="&#x20;" d="" horiz-adv-x="512" />
<glyph unicode="&#xe600;" d="M96 64c-17.664 0-32 14.304-32 32v448c0 17.664 14.336 32 32 32s32-14.336 32-32v-448c0-17.696-14.336-32-32-32zM864.32 576h-189.376c13.792 32 29.6 114.72 20.352 189.952-7.328 60.032-42.368 106.080-93.728 123.456-38.080 12.896-78.208 6.624-99.84-15.456-25.792-26.304-37.888-75.904-50.688-128.352-8.384-34.336-17.056-69.888-27.84-88.16-31.104-52.896-96.256-77.024-109.376-81.44h-89.824c-17.664 0-32-14.336-32-32v-448c0-17.696 14.336-32 32-32h86.592c26.752-14.496 126.4-64 241.76-64h215.936c35.552 0 96.8 13.76 119.712 51.712 23.136 38.464 71.936 388.672 71.936 427.488 0 53.472-52.32 96.8-95.616 96.8zM833.152 84.704c-4.8-8-36.48-20.704-64.864-20.704h-215.936c-114.336 0-215.168 64-216.16 64 0 0-0.032 0-0.032 0-4.8 0-10.112 0-16.128 0h-64.032v384h64c2.624 0 4.96 0.896 7.392 1.504 0.512 0.128 0.992-0.032 1.504 0.128 0.224 0.064 0.864 0.256 1.696 0.512 0.832 0.288 1.728 0.448 2.528 0.832 19.456 6.432 102.528 37.344 145.216 110.016 15.52 26.4 24.928 64.8 34.848 105.408 9.248 37.856 20.736 84.928 34.112 98.592 3.072 2.624 18.016 5.952 36.8-1.44 15.328-6.048 41.952-23.136 47.648-69.664 12.608-102.496-31.392-200.096-31.84-201.088-4.576-9.92-3.744-21.152 2.144-30.336 5.888-9.152 16-14.432 26.912-14.432h235.328c8.672 0 31.616-15.040 31.616-32.768 0.032-42.688-49.376-364.256-62.752-394.56z" />
<glyph unicode="&#xe601;" d="M545.856 320c-0.416 0-0.8 0-1.216 0-17.216 0-33.12 13.12-44.832 25.952l-36.992 43.392c-11.904 13.056-10.944 34.688 2.112 46.56 13.088 11.936 33.312 11.648 45.216-1.408l36.992-40.256 173.472 179.136-49.888 54.144-72-74.144c-12.48-12.544-32.704-12.672-45.248-0.192-12.576 12.416-12.672 32.704-0.256 45.248l73.44 74.176c12.128 12.256 28.992 18.336 45.408 18.752 17.184-0.16 33.184-7.168 45.056-19.68l49.888-52.512c23.872-25.12 23.52-65.728-0.736-90.464l-176-184.448c-12-12.128-27.68-24.256-44.416-24.256zM351.968 205.408c-16.32 0-32.64 6.048-45.088 18.208l-50.432 49.216c-12.224 11.936-19.040 27.936-19.2 45.056-0.128 17.152 6.4 33.28 18.464 45.44l179.040 187.104c12.032 12.128 28.096 25.568 45.216 25.568 0.032 0 0.096 0 0.16 0 17.088 0 33.12-13.344 45.152-25.376l41.312-44.672c12.512-12.512 12.512-34.432 0-46.912-12.512-12.512-32.736-13.344-45.248-0.832l-41.312 40.896-178.848-180.608 50.4-48.96 74.944 73.344c12.608 12.416 32.8 12.32 45.28-0.288 12.416-12.576 12.32-32.832-0.224-45.248l-74.176-73.408c-12.512-12.32-28.992-18.528-45.44-18.528zM512 0c-247.040 0-448 200.96-448 448s200.96 448 448 448 448-200.96 448-448-200.96-448-448-448zM512 832c-211.744 0-384-172.256-384-384s172.256-384 384-384c211.744 0 384 172.256 384 384s-172.256 384-384 384z" />
<glyph unicode="&#xe602;" d="M512 32c-8.192 0-16.384 3.136-22.624 9.376l-96 96c-12.512 12.512-12.512 32.736 0 45.248s32.736 12.512 45.248 0l73.376-73.376 73.376 73.376c5.984 6.016 14.112 9.376 22.624 9.376h224c17.664 0 32 14.336 32 32v512c0 17.632-14.336 32-32 32h-640c-17.632 0-32-14.368-32-32v-512c0-17.664 14.368-32 32-32h96c17.664 0 32-14.304 32-32s-14.336-32-32-32h-96c-52.928 0-96 43.072-96 96v512c0 52.928 43.072 96 96 96h640c52.928 0 96-43.072 96-96v-512c0-52.928-43.072-96-96-96h-210.752l-86.624-86.624c-6.24-6.24-14.432-9.376-22.624-9.376zM336 448c-26.464 0-48 21.536-48 48s21.536 48 48 48 48-21.536 48-48-21.536-48-48-48zM528 448c-26.464 0-48 21.536-48 48s21.536 48 48 48 48-21.536 48-48-21.536-48-48-48zM720 448c-26.464 0-48 21.536-48 48s21.536 48 48 48 48-21.536 48-48-21.536-48-48-48z" />
<glyph unicode="&#xe603;" d="M512 896c-247.040 0-448-200.96-448-448s200.96-448 448-448 448 200.96 448 448-200.96 448-448 448zM289.216 135.84c3.168 0.128 6.336 0.224 9.472 1.344 62.784 22.24 124.8 38.24 158.016 40.8 16.672 1.28 29.536 15.2 29.536 31.904v59.072c0 9.408-4.128 18.336-11.296 24.416-53.088 45.088-72 144.768-72 223.072 0 90.016 42.144 135.648 125.28 135.648 79.2 0 117.696-44.352 117.696-135.648 0-88.928-39.296-189.856-89.44-229.792-7.616-6.048-12.064-15.264-12.064-25.024v-55.008c0-16.224 12.128-29.824 28.224-31.776 37.184-4.448 101.088-25.952 148.48-44.64 1.568-0.608 3.2-0.544 4.832-0.896-61.184-41.216-134.816-65.312-213.952-65.312-83.104 0-159.904 26.816-222.784 71.84zM764.608 159.488c0.224 12.96-7.296 25.248-20.064 30.304-20.8 8.192-84.16 32.32-136.128 43.68v13.6c66.688 62.816 101.504 180.48 101.504 269.376 0 126.88-66.208 199.648-181.696 199.648-118.528 0-189.28-74.624-189.28-199.648 0-42.944 6.24-183.936 83.296-261.408v-17.152c-44.704-7.904-101.44-25.024-144.928-40.416-15.008-5.312-22.976-20.704-20.16-35.936-79.008 70.4-129.152 172.544-129.152 286.464 0 211.744 172.256 384 384 384s384-172.256 384-384c0-115.008-51.072-218.080-131.392-288.512z" />
<glyph unicode="&#xe604;" d="M512 0c-247.040 0-448 200.96-448 448s200.96 448 448 448 448-200.96 448-448-200.96-448-448-448zM512 832c-211.744 0-384-172.256-384-384s172.256-384 384-384c211.744 0 384 172.256 384 384s-172.256 384-384 384zM668.832 458.848c-0.032 0.128-0.192 0.256-0.256 0.384-1.536 3.616-3.648 7.072-6.592 10.048-0.032 0.032-0.064 0.032-0.096 0.064s-0.032 0.064-0.064 0.096l-158.912 159.36c-12.48 12.512-32.736 12.576-45.248 0.064-12.512-12.48-12.544-32.736-0.064-45.248l136.288-136.672-137.408-135.904c-12.576-12.448-12.672-32.672-0.256-45.248 6.24-6.336 14.496-9.504 22.752-9.504 8.128 0 16.256 3.104 22.496 9.248l160.256 158.496c9.504 9.376 11.872 23.2 7.104 34.816z" />
<glyph unicode="&#xe605;" d="M450.888 487.875h-171.725l116.429 123.924h55.296v-123.924zM698.266 487.875h-186.266v123.924h58.266l128-123.924zM23.040 397.763c0-52.593 38.113-148.582 89.764-169.349l-0.696 13.312c0 62.198 56.177 99.697 120.484 99.697 39.875 0 75.059-6.41 96.031-26.092v-13.332h10.691c6.205-10.465 9.667-23.429 9.667-39.424 0-7.7-0.799-15.237-2.314-22.528h330.629c-1.516 7.27-2.314 14.807-2.314 22.528 0 15.995 3.461 28.979 9.667 39.424h10.691v13.332c20.972 19.702 56.156 26.092 96.031 26.092 64.307 0 116.429-50.422 116.429-112.64 0-6.84-0.655-13.537-1.864-20.050 50.258 11.428 95.007 117.105 95.007 166.482 0 56.34-58.204 112.64-116.429 112.64h-64.082l-189.071 185.876h-282.358l-171.254-185.876h-61.583c-46.551 0.020-93.123-45.036-93.123-90.092zM717.189 211.19c0-37.335 31.273-67.584 69.857-67.584s69.857 30.269 69.857 67.584-31.273 67.584-69.857 67.584-69.857-30.269-69.857-67.584zM167.117 207.913c0-37.335 31.273-67.584 69.857-67.584s69.857 30.269 69.857 67.584-31.273 67.584-69.857 67.584-69.857-30.249-69.857-67.584z" />
<glyph unicode="&#xe606;" d="M224 352c-52.928 0-96 43.072-96 96s43.072 96 96 96c52.928 0 96-43.072 96-96s-43.072-96-96-96zM512 352c-52.928 0-96 43.072-96 96s43.072 96 96 96c52.928 0 96-43.072 96-96s-43.072-96-96-96zM800 352c-52.928 0-96 43.072-96 96s43.072 96 96 96c52.928 0 96-43.072 96-96s-43.072-96-96-96z" />
<glyph unicode="&#xe607;" d="M671.968 48c-12.288 0-24.576 4.672-33.952 14.048l-351.968 351.968c-18.752 18.72-18.752 49.12 0 67.872l351.968 352c18.752 18.752 49.12 18.752 67.872 0 18.752-18.72 18.752-49.12 0-67.872l-318.016-318.048 318.016-318.016c18.752-18.752 18.752-49.12 0-67.872-9.344-9.408-21.632-14.080-33.92-14.080z" />
<glyph unicode="&#xe608;" d="M611.2 335.104v-357.12c0-23.168-18.88-41.984-42.176-41.984h-126.4c-23.296 0-42.176 18.816-42.176 41.984v357.12h-358.336c-23.296 0-42.112 18.816-42.112 42.048v125.952c0 23.232 18.816 42.048 42.112 42.048h358.272v357.12c0 23.168 18.88 41.984 42.176 41.984h126.464c23.296 0 42.176-18.816 42.176-41.984v-357.12h358.272c23.36 0 42.176-18.816 42.176-42.048v-126.016c0-23.168-18.816-41.984-42.176-41.984h-358.272z" />
<glyph unicode="&#xe609;" d="M884.192 231.328c-59.328 77.568-135.872 117.632-265.184 130.496-23.328 4.672-40.928 25.376-40.928 50.016 0 17.952 57.76 71.808 57.312 72.192 59.552 61.568 91.488 161.664 91.488 238.592 0 119.488-96.192 216.512-214.88 216.512s-214.848-97.024-214.848-216.512c0-77.344 31.104-178.016 91.264-239.616 0 0 57.504-53.216 57.504-71.168 0-26.048-19.648-47.68-45.024-50.816-126.656-13.312-202.368-53.184-261.088-129.696-16.992-22.112-26.208-66.496-26.816-90.24 0.192-6.112 0-102.304 0-102.304 0-45.248 36.64-81.888 81.856-81.888h634.368c45.184 0 81.824 36.64 81.824 81.888 0 0-0.192 96.192 0 102.304-0.608 23.744-9.856 68.128-26.848 90.24z" />
<glyph unicode="&#xe60a;" d="M249.408 669.12v-143.040h-61.28c-45.152 0-81.728-36.544-81.728-81.696v-408.64c0-45.216 36.576-81.792 81.728-81.792h653.824c45.184 0 81.76 36.576 81.76 81.792v408.64c0 45.152-36.576 81.696-81.76 81.696h-61.28v143.040c0 146.688-118.88 265.632-265.6 265.632s-265.664-118.912-265.664-265.632zM351.616 526.080v143.040c0 90.336 73.12 163.456 163.424 163.456s163.456-73.12 163.456-163.456v-143.040h-326.88zM433.312 301.312c0 45.184 36.608 81.76 81.728 81.76s81.76-36.576 81.76-81.76c0-28.8-15.008-54.080-37.44-68.672 0 0 8-48.192 16.96-104.992 0-16.992-13.696-30.656-30.656-30.656h-61.312c-16.928 0-30.624 13.664-30.624 30.656l16.96 104.992c-22.464 14.592-37.376 39.872-37.376 68.672z" />
<glyph unicode="&#xe60b;" d="M512.032 352.192c17.76 0 32.16 14.368 32.16 32.16v289.28c0 17.76-14.4 32.128-32.16 32.128s-32.16-14.368-32.16-32.128v-289.28c0-17.792 14.4-32.16 32.16-32.16zM512.032 287.904c-26.624 0-48.192-21.664-48.192-48.224 0-26.656 21.6-48.224 48.192-48.224s48.224 21.568 48.224 48.224c0 26.56-21.6 48.224-48.224 48.224zM512.032 896c-247.040 0-448-200.96-448-448 0-247.072 200.96-448 448-448 247.104 0 447.968 200.896 447.968 448 0 247.040-200.864 448-447.968 448zM512.032 64.256c-211.584 0-383.712 172.16-383.712 383.744s172.128 383.712 383.712 383.712c211.584 0 383.712-172.128 383.712-383.712 0-211.616-172.128-383.744-383.712-383.744z" />
<glyph unicode="&#xe60c;" d="M512.896 958.976c-282.816 0-512.064-229.248-512.064-512 0-282.816 229.248-512 512.064-512 282.752 0 512 229.184 512 512 0 282.752-229.184 512-512 512zM508.672 32.384c-228.416 0-413.504 185.088-413.504 413.568 0 228.288 185.152 413.44 413.504 413.44 228.416 0 413.568-185.152 413.568-413.44 0-228.544-185.088-413.568-413.568-413.568zM628.096 422.144h-117.248v198.208c0 21.504-17.472 38.976-38.912 38.976-21.568 0-39.040-17.408-39.040-38.976v-237.248c0-21.568 17.472-38.976 39.040-38.976h156.16c21.632 0 39.040 17.408 39.040 38.976 0.064 21.632-17.408 39.040-39.040 39.040z" />
<glyph unicode="&#xe60d;" d="M616.32 345.6l-565.12-1.536c-23.168-0.128-41.856 18.624-41.792 41.728l0.384 125.568c0.064 23.104 18.88 41.92 41.984 41.984l921.088 2.56c23.104 0.064 41.792-18.688 41.728-41.792l-0.384-125.568c0-23.104-18.816-41.92-41.92-41.984l-355.968-0.96z" />
<glyph unicode="&#xe60e;" d="M505.76 739.456c21.44 0 39.392-7.584 53.824-22.816 14.464-15.232 21.696-36.928 21.696-65.088 0-26.816-5.472-50.368-16.416-70.592-10.944-20.192-38.528-51.040-82.752-92.384-29.344-27.264-48.704-53.056-58.144-77.376s-14.112-63.968-14.112-118.976h218.080c3.040 20.512 8.864 36.032 17.408 46.72 8.544 10.656 28.352 27.808 59.424 51.456 40.704 30.88 70.144 56 88.352 75.328 18.176 19.328 33.056 44 44.672 73.984 11.584 29.984 17.408 63.136 17.408 99.52 0 82.272-29.312 151.232-88 206.88-58.72 55.68-138.848 83.52-240.416 83.52-201.856 0-321.184-106.592-357.984-319.712l241.056-27.264c0.448 104.544 32.416 156.8 95.904 156.8v0zM401.344 217.92v-248.832h251.584v248.832h-251.584z" />
<glyph unicode="&#xe60f;" d="M357.632 360.512c-25.728-2.688-44.16-25.088-44.16-46.592 0-21.44 20.672-36.16 46.4-33.28 25.6 2.944 46.4 22.656 46.4 44.096s-19.136 38.528-48.64 35.776zM422.784 378.176c-8.832-6.4-10.624-18.56-5.824-26.304 4.672-7.616 15.36-8.704 24-1.984 8.512 6.592 11.84 18.304 7.232 26.048s-15.168 9.92-25.408 2.24zM512.192 960c-282.432 0-511.872-229.184-511.872-511.808 0-282.56 229.44-511.488 511.872-511.488 282.688 0 511.808 228.928 511.808 511.488 0 282.624-229.056 511.808-511.808 511.808zM792 320c-56.448-119.872-242.496-178.24-380.288-167.36-131.008 10.176-299.456 53.696-316.864 212.224 0 0-9.216 71.936 60.416 164.736 0 0 100.16 139.84 216.768 179.776 116.672 39.744 130.304-27.456 130.304-67.2-6.208-33.728-17.792-53.504 25.984-39.936 0 0 114.688 53.248 161.984 6.016 38.016-38.144 6.272-90.56 6.272-90.56s-15.744-17.472 16.64-23.808c32.576-6.464 135.104-53.952 78.784-173.888zM678.784 650.944c-12.416 0-22.528 10.112-22.528 22.528 0 12.608 10.048 22.72 22.528 22.72 0 0 140.672 25.984 123.968-125.12 0-0.896-0.128-1.6-0.448-2.368-1.472-10.688-10.944-18.88-22.080-18.88-12.352 0-22.656 9.984-22.656 22.528 0-0.128 22.336 100.864-78.784 78.592zM916.288 545.6c-3.584-54.464-16.32-35.392-31.424-35.392-18.048 0-32.704 9.088-32.704 27.2 0 15.68 6.464 28.864 6.464 28.864 1.92 6.592 17.216 46.208-9.984 107.52-50.112 84.032-150.72 84.544-162.688 79.744-12.032-4.672-29.76-7.488-29.76-7.488-18.112 0-32.832 14.592-32.832 32.512 0 15.104 10.112 27.648 23.936 31.488 0 0 0.448 0.064 0.96 0.192 0.96 0.192 1.856 0.384 3.008 0.512 13.952 2.688 63.936 21.824 112.576 10.496 87.104-20.352 206.528-112.448 152.768-275.712h-0.32zM421.888 521.792c-136.768-6.208-247.424-79.552-247.424-170.944 0-91.264 110.656-159.872 247.424-153.6 136.896 6.336 247.808 91.968 247.808 183.232s-110.912 147.648-247.808 141.312zM515.072 291.904c-41.856-54.080-124.8-80.448-205.312-36.8-38.336 20.736-36.928 61.44-36.928 61.44s-15.872 128.96 121.792 145.088c137.792 16 162.432-115.712 120.448-169.728z" />
<glyph unicode="&#xe610;" d="M512.704 960c-282.944 0-512.704-229.376-512.704-512.512 0-283.008 229.76-512.384 512.704-512.384 283.072 0 512.576 229.376 512.576 512.384 0 283.136-229.504 512.512-512.576 512.512zM192.192 126.336c0.832-9.984-6.592-17.536-16.512-17.536h-1.792c-9.28 0-17.088 4.864-17.984 14.336-13.696 152.832 34.624 259.968 77.76 323.904 15.552 23.232 31.488 41.792 45.888 57.024-3.584 8.192-5.632 17.088-5.632 26.688 0 37.12 30.272 67.072 67.456 67.072 37.376 0 67.328-30.144 67.328-67.264 0-37.376-29.952-67.52-67.328-67.52-14.336 0-27.52 4.48-38.592 12.096-12.672-13.504-26.496-29.568-40-49.792-57.152-85.504-81.088-185.664-70.592-299.008zM338.368 323.328c-15.296 0-30.848 1.664-45.696 4.992-9.792 2.304-15.616 11.968-13.568 21.632 2.368 9.792 11.904 15.936 21.632 13.632 12.224-2.816 24.896-4.224 37.632-4.224 92.352 0 167.36 75.008 167.36 167.168s-75.008 167.168-167.36 167.168c-92.16 0-167.296-75.008-167.296-167.168 0-26.752 6.144-52.48 18.368-76.224 4.672-8.832 1.152-19.776-7.936-24.256-8.896-4.672-19.648-1.152-24.256 7.744-14.72 28.416-22.336 60.672-22.336 92.736 0 112.192 91.2 203.456 203.456 203.456 112.32 0 203.584-91.264 203.584-203.456 0-111.936-91.264-203.2-203.584-203.2zM716.736 559.808c-18.048-0.384-36.352 3.392-52.8 11.264-57.472 27.328-82.048 96.256-54.656 153.728 27.264 57.472 96.256 82.048 153.728 54.72 57.472-27.264 82.048-96.384 54.656-153.664-4.032-7.936-8.448-15.424-13.824-22.272-3.456-4.352-9.984-5.184-14.464-1.664s-5.12 10.048-1.6 14.464c4.416 5.504 8.192 11.84 11.2 18.368 22.592 47.168 2.56 104-44.8 126.208-47.296 22.528-103.936 2.496-126.272-44.992-22.656-47.232-2.624-103.808 44.8-126.336 13.696-6.464 28.48-9.6 43.456-9.024 5.696 0.064 10.496-4.352 10.624-10.048 0.192-5.76-4.224-10.432-10.048-10.752zM876.672 483.072c-81.6 30.208-125.376 81.28-147.648 118.912-8 13.632-13.888 26.56-18.048 37.568-5.312 0.064-10.24 1.472-15.104 3.584-19.328 9.28-27.328 31.872-18.176 50.944 9.024 19.072 31.68 27.136 50.88 18.048 19.008-9.152 27.072-31.872 18.112-50.88-3.52-7.232-9.152-12.992-15.616-16.576 4.032-10.048 9.216-21.184 16.32-33.024 29.888-50.176 75.904-86.912 136.384-109.312 5.376-2.048 8-7.744 6.208-13.12-0.192-0.384-0.384-0.64-0.384-0.96-2.432-4.672-7.808-6.976-12.928-5.184z" />
<glyph unicode="&#xe611;" d="M697.344 557.312h-355.776l234.304-40.128-251.648-205.12h381.76l-225.6 48.832zM511.744 960.64c-282.88 0-512.32-229.312-512.32-512.256s229.376-512.32 512.32-512.32c282.944-0.064 512.256 229.312 512.256 512.256s-229.312 512.32-512.256 512.32zM844.8 540.096l-130.176-110.4 43.264-277.824c-8.704-8.704-8.96-8.704-17.6-8.704l-225.984 138.944-226.56-138.944c-17.344 0-19.072 0-19.072 8.704l31.104 277.824-137.344 121.6-46.976 33.28h-13.312v1.472l13.312-1.408h269.568l34.624 61.76 86.784 183.424c8.64 0 8.64 0 17.344 0l95.424-183.424 34.816-61.824h234.24c8.704 0 8.704 5.056 8.704-3.584l-52.16-40.896z" />
<glyph unicode="&#xe612;" d="M999.264 676.864l-139.936 139.904-470.944-470.976-223.712 223.712-139.904-139.936 223.712-223.68-1.152-1.152 139.904-139.904 1.152 1.152 1.12-1.152 139.872 139.904-1.12 1.152z" />
<glyph unicode="&#xe613;" d="M991.968 749.376l-178.592 178.624-301.376-301.376-301.376 301.376-178.624-178.624 301.376-301.376-301.376-301.376 178.624-178.592 301.376 301.376 301.376-301.376 178.592 178.592-301.376 301.376z" />
<glyph unicode="&#xe614;" d="M979.84 555.456l-405.568 320.544c-34.912 27.648-89.696 27.616-124.576 0l-405.536-320.544c-13.856-10.976-16.224-31.104-5.28-44.96s30.624-16.224 44.48-5.28l12.64 10.368v-387.584c0-54.944 57.888-96 108.8-96h640c50.304 0 83.2 38.592 83.2 96v386.080l11.68-8.864c5.888-4.64 13.12-6.88 20.064-6.88 9.44 0 18.912 4.16 25.216 12.16 10.976 13.856 8.768 33.984-5.12 44.96zM480 96v177.408c0 8.832 16 13.248 32 13.248s32-4.416 32-13.248v-177.408h-64zM864 128c0-21.216-5.856-32-19.2-32h-236.16c0 0.48-0.64 0.864-0.64 1.344v176.064c0 37.216-30.016 77.28-96 77.28s-96-40.064-96-77.28v-176.064c0-0.48 0.864-0.864 0.864-1.344h-212.064c-20.064 0-44.8 17.344-44.8 32v438.176l328.928 259.616c11.808 9.344 33.12 9.344 44.96 0l330.112-261.12v-436.672z" />
<glyph unicode="&#xe615;" d="M512.096 936c-269.632 0-488.32-218.624-488.32-488.128 0-269.408 218.656-487.872 488.32-487.872 269.6 0 488.16 218.464 488.16 487.872 0 269.504-218.56 488.128-488.16 488.128zM810.208 317.568l-0.768-5.024-1.088-8.672-1.536-7.808-2.272-7.072-0.864-2.912-1.568-3.456-1.376-2.432-1.856-3.008-1.536-1.856-2.080-2.496-1.792-1.92-1.984-1.696-2.24-1.024-2.080-0.992-1.696-0.576h-2.624l-1.728 0.576-3.2 1.568-1.472 1.056-1.472 1.088-1.696 1.504-1.696 1.696-2.752 3.072-3.328 4.416-2.56 4.512-2.592 3.584-2.496 4.192-3.584 7.552-4 7.712-0.512 0.224h-0.64l-1.664-1.152-0.96-2.016-1.568-2.592-2.752-7.52-4.096-10.72-5.28-12.96-4-6.432-4.16-6.72-4.896-7.552-5.28-7.36-2.656-3.328-3.296-3.648-7.52-7.392 0.672-0.608 1.088-1.024 3.648-2.24 15.584-7.52 6.784-3.776 6.496-3.744 6.464-4.672 5.728-4.8 2.784-2.080 2.080-2.528 2.080-2.912 1.792-3.2 0.96-2.592 1.12-3.2 0.576-2.72 0.512-3.2-0.512-2.080v-2.176l-0.576-2.208-1.12-2.112-0.48-1.504-1.056-1.984-2.848-3.84-2.56-3.072-2.048-2.368-1.696-1.696-4.32-3.232-4.8-2.624-5.248-2.656-5.536-2.496-6.24-2.368-3.296-1.088-3.008-0.8-7.136-1.728-7.488-1.536-7.456-1.664-8.096-1.28-8.48-0.416-8.608-0.928h-26.688l-9.632 0.544-8.96 0.8-9.632 1.28-9.568 1.088-10.080 1.44-9.856 2.368-9.504 1.92-9.536 2.688-9.728 3.456-9.568 2.88-4.96 1.696-4.512 1.568-2.816 1.088-2.784 0.608h-7.968l-9.12 0.64-4.672 0.48-6.016 0.672-3.84-3.456-5.248-3.264-7.104-3.392-7.808-4.352-4.8-2.368-4.96-1.856-11.008-4.48-5.984-1.504-6.272-1.696-8.704-1.632-5.408-0.576-5.792-0.48-6.016-0.64-7.008-0.256h-28.576l-16.096 0.256-15.648 1.664-7.936 1.056-7.68 1.152-7.424 1.088-7.456 1.504-6.912 2.24-6.912 1.536-6.208 2.528-5.92 2.368-5.472 2.56-4.8 2.944-4.768 3.36-1.6 1.728-1.952 2.048-1.632 1.792-1.472 2.016-1.312 2.016-1.024 2.080-1.504 4.416-0.576 2.176-0.64 2.496v2.4l0.64 2.656v2.592l0.576 2.56v5.216l0.256 2.816 1.248 3.264 1.024 3.136 1.888 3.776 1.376 1.568 1.12 1.632 2.944 3.68 2.368 1.92 2.24 1.216 2.016 1.696 3.296 1.024 2.592 1.568 3.264 1.76 7.424 2.176 4.32 0.928 4.096 0.544 4.864 0.672 5.248 0.416 1.376 0.416h0.288l0.672 0.64v0.608l-0.928 1.376-2.784 1.28-7.008 6.016-4.672 3.808-5.44 4.672-5.472 5.344-5.664 6.784-6.528 7.648-2.432 4.16-3.264 4.256-2.784 4.896-2.496 5.44-3.392 5.152-2.208 5.856-2.624 5.92-2.624 6.496-1.92 6.304-1.792 7.68-0.576 0.32h-0.576l-0.256 0.576h-0.704l-1.088-0.576-0.608-0.32-0.736-1.312-0.288-1.568-0.576-1.408-0.96-2.304-3.232-5.728-1.632-3.36-2.624-3.008-2.816-3.648-3.072-4.064-3.264-3.52-3.84-3.456-3.584-3.264-3.872-2.528-4.288-2.72-4.128-1.568-4.864-1.312-4.768-0.416h-1.12l-1.088 0.416-0.864 1.92-1.408 0.928-1.824 4.512-1.12 2.432-1.248 3.456-0.992 3.584-0.608 3.616-1.504 8.16-0.544 4.736v15.648l0.544 11.616 0.96 6.016 1.12 6.176 0.992 6.656 1.824 6.080 2.016 7.136 2.080 6.944 2.784 7.072 2.624 6.848 3.616 6.88 3.392 7.456 4.128 7.008 4.8 7.552 4.96 6.784 5.088 7.584 4.32 5.216 5.504 6.048 5.792 6.048 2.688 2.912 3.296 3.264 4.736 4.096 4.864 4.16 7.936 7.104 6.016 4.352 2.144 1.632-1.216 3.648-0.896 4.8-0.672 2.624v10.72l1.152 4.192 1.184 4.512 1.536 4.672 2.016 5.184 2.72 5.44 3.808 5.408v3.84l0.352 3.52 0.576 4.832 1.664 5.408 1.504 5.888 1.184 2.72 1.376 2.528 1.824 2.784 1.92 2.080v13.408l1.152 6.912 1.12 8.032 2.016 9.6 2.752 10.016 2.112 5.504 2.048 5.952 2.272 5.632 2.656 5.952 2.752 6.528 3.168 6.176 3.552 6.528 4.48 6.56 2.080 3.712 2.208 3.072 4.768 6.944 4.896 6.88 5.632 7.104 6.016 6.912 6.528 6.752 6.784 7.040 8.224 7.52 5.248 4.608 6.368 4.96 6.432 4.352 7.008 4.192 6.688 3.744 7.584 3.104 8.032 3.84 7.968 2.624 8 2.688 8.608 2.72 8.608 2.016 9.088 1.696 9.152 1.504 9.056 1.184 9.088 1.248 9.632 0.544h28.48l9.472-1.216 9.568-1.12 9.728-1.056 9.024-2.112 9.6-2.080 8.928-2.304 9.792-2.624 8.896-3.168 8.672-3.648 9.184-3.84 8.384-4.192 8.096-4.672 8-5.12 6.912-4.768 3.136-2.688 3.296-1.984 6.368-5.376 5.44-5.216 5.408-5.44 5.152-5.984 4.32-5.76 5.12-5.984 3.552-6.464 3.616-5.696 3.84-6.656 3.2-5.792 5.344-12.224 2.656-6.336 2.016-5.888 2.112-6.336 1.76-5.984 1.376-5.152 1.664-6.080 2.944-10.784 1.92-9.44 1.152-9.152 1.024-7.36 1.696-11.2 0.416-1.792 1.28-2.080 3.52-5.792 2.304-3.904 2.016-4.128 2.624-4.384 2.208-5.248 1.472-5.408 1.632-5.888 1.216-6.048 0.576-3.008 0.512-3.616v-3.168l-0.512-3.168v-3.936l-0.928-3.84-1.728-7.36-1.92-3.744-1.408-4.192v-1.024l0.64-1.312 1.952-3.104 8.384-12.416 6.656-9.312 3.168-6.272 4.352-6.784 3.776-7.488 4.288-8 4.288-8.992 4.832-10.144 2.688-6.24 2.528-6.048 2.144-6.464 2.144-5.76 1.568-6.080 1.632-5.728 2.144-11.072 1.6-11.392 1.184-10.080v-14.112z" />
<glyph unicode="&#xe616;" d="M594.848 451.392c-14.144 0-28.384-14.208-28.384-28.32 0-14.336 14.208-28.384 28.384-28.384 21.408 0 35.424 14.016 35.424 28.384 0 14.144-14.016 28.32-35.424 28.32zM750.752 451.392c-14.016 0-28.16-14.208-28.16-28.32 0-14.336 14.112-28.384 28.16-28.384 21.28 0 35.488 14.016 35.488 28.384 0 14.144-14.208 28.32-35.488 28.32zM304.192 656.896c-21.216 0-42.688-13.984-42.688-35.328 0-21.248 21.472-35.456 42.688-35.456 21.248 0 35.36 14.208 35.36 35.456 0.032 21.344-14.112 35.328-35.36 35.328zM502.656 586.112c21.344 0 35.456 14.208 35.456 35.456 0 21.344-14.144 35.328-35.456 35.328-21.248 0-42.592-13.984-42.592-35.328-0.032-21.216 21.312-35.456 42.592-35.456zM513.344 947.968c-274.272 0-496.832-222.336-496.832-496.576 0-274.176 222.592-496.544 496.832-496.544 274.304 0 496.8 222.336 496.8 496.544-0.032 274.24-222.528 496.576-496.8 496.576zM396.32 295.36c-35.392 0-63.808 7.232-99.296 14.208l-99.136-49.728 28.32 85.28c-70.912 49.568-113.408 113.504-113.408 191.296 0 134.816 127.648 240.96 283.52 240.96 139.36 0 261.504-84.768 286.016-198.944-8.992 1.024-18.080 1.632-27.328 1.632-134.656 0-240.992-100.416-240.992-224.224 0-20.608 3.232-40.448 8.736-59.36-8.736-0.672-17.568-1.12-26.432-1.12zM814.496 196.128l21.344-70.816-77.76 42.592c-28.384-7.136-56.832-14.24-85.088-14.24-134.88 0-241.12 92.128-241.12 205.6 0 113.344 106.208 205.632 241.12 205.632 127.36 0 240.832-92.32 240.832-205.632 0.032-63.904-42.4-120.48-99.328-163.136z" />
<glyph unicode="&#xe617;" d="M511.168 923.616c-264.896 0-479.744-214.784-479.744-479.552 0-264.672 214.816-479.264 479.744-479.264 264.864 0 479.584 214.592 479.584 479.264 0 264.768-214.72 479.552-479.584 479.552zM783.616 226.24c-24.832 0-47.2-0.992-61.344 9.12-14.624 10.432-29.504 32.96-41.024 47.392-26.816 31.392-53.728 62.848-80.576 94.304-21.856 27.456-38.048 53.216-81.632 59.808-45.408 6.912-70.112-33.76-87.872-55.968-30.432-35.168-60.832-70.272-91.264-105.408-13.504-16.864-27.168-38.24-48.32-47.328-11.776-5.088-31.744-3.36-48.288-3.36h-83.52c-7.648 0-25.632-2.752-30.912 0.896 0.352 0.384 0.64 0.672 0.96 0.96 10.304 11.872 20.608 23.616 30.88 35.456 20.608 25.696 48.48 63.584 76.288 80.864 14.496 9.024 31.904 13.696 50.688 18.72 5.824 1.504 20.096 1.472 22.176 6.656-88.416-0.512-149.408-9.536-173.792 57.472-4.64 12.736-9.408 33.504-6.272 52.672 2.016 12.448 2.816 24.736 6.272 35.936 5.472 17.76 12.8 34.656 22.208 48.832 19.264 29.12 47.52 56.192 81.12 70.848 8.992 3.328 18.016 6.72 27.040 10.048 7.104 1.6 14.144 3.232 21.248 4.768h287.744c-3.712-9.92-17.6-17.792-24.16-25.856-8.512-9.088-17.056-18.176-25.536-27.296-13.376-16.448-27.936-34.72-52.16-40.224-13.312-3.008-31.392-1.408-46.848-1.408h-104.8c-25.248-4.768-44-19.68-56.48-37.344-10.144-14.432-16.768-43.424-5.312-62.24 3.968-6.496 10.72-13.056 18.368-15.808 10.784-3.904 29.184-1.472 43.424-1.472h90.816c16.32 0 39.616-2.848 52.608 1.952 14.4 5.312 42.752 43.52 53.152 56.48 28.928 31.456 57.92 62.88 86.88 94.336 11.904 14.624 33.12 41.056 48.736 50.752 14.688 9.056 36.896 8.128 61.344 8.128h112.96c-49.888-55.36-99.776-110.752-149.664-166.112-9.632-10.56-19.328-21.088-28.96-31.616-3.648-4.512-10.752-8.352-12.576-14.368 0.224-0.16 0.32-0.352 0.512-0.48 25.248 0.512 57.12 2.88 75.808-4.8 24.576-10.112 40.064-34.208 55.456-53.6 28.576-33.536 57.056-67.072 85.536-100.544 10.912-12.736 21.888-25.568 32.768-38.336 3.328-4.128 8.928-7.424 10.656-12.896-0.16-0.16-0.384-0.288-0.512-0.544-37.824 0.352-75.808 0.448-113.824 0.608z" />
<glyph unicode="&#xe618;" d="M898.496 960l67.244-571.56-75.48-8.88-60.052 510.44h-636.416l-60.052-510.44-75.48 8.88 67.242 571.56zM256 832h512v-64h-512zM256 704h512v-64h-512zM256 576h512v-64h-512zM256 448h512v-64h-512zM992 320h-960c-17.6 0-27.446-13.66-21.88-30.358l107.76-323.284c5.566-16.698 24.52-30.358 42.12-30.358h704c17.6 0 36.552 13.66 42.12 30.358l107.762 323.286c5.566 16.696-4.282 30.356-21.882 30.356zM640 192h-256v64h256v-64z" />
<glyph unicode="&#xe619;" d="M761.056 427.872c0.512 0.992 1.344 1.824 1.792 2.848 8.8 18.304 5.92 40.704-9.664 55.424l-353.248 334.112c-19.264 18.208-49.632 17.344-67.872-1.888-18.208-19.264-17.376-49.632 1.888-67.872l316.96-299.84-315.712-304.288c-19.072-18.4-19.648-48.768-1.248-67.872 9.408-9.792 21.984-14.688 34.56-14.688 12 0 24 4.48 33.312 13.44l350.048 337.376c0.672 0.672 0.928 1.6 1.6 2.304 0.512 0.48 1.056 0.832 1.568 1.344 2.72 2.848 4.16 6.336 6.016 9.6z" />
<glyph unicode="&#xe61a;" d="M512 896c-247.008 0-448-200.96-448-448s200.96-448 448-448c247.008 0 448 200.96 448 448s-200.96 448-448 448zM694.752 310.016c12.48-12.544 12.448-32.768-0.064-45.248-6.24-6.208-14.4-9.344-22.592-9.344-8.224 0-16.416 3.136-22.656 9.408l-137.6 138.016-138.048-136.576c-6.24-6.144-14.368-9.248-22.496-9.248-8.256 0-16.48 3.168-22.752 9.504-12.416 12.576-12.32 32.8 0.256 45.248l137.888 136.384-137.376 137.824c-12.48 12.512-12.448 32.768 0.064 45.248 12.512 12.512 32.736 12.448 45.248-0.064l137.568-137.984 138.048 136.576c12.544 12.448 32.832 12.32 45.248-0.256 12.448-12.576 12.32-32.832-0.256-45.248l-137.888-136.384 137.408-137.856z" />
<glyph unicode="&#xe61b;" d="M887.328 342.848l-353.376 350.144c-0.512 0.512-1.216 0.672-1.76 1.152-0.128 0.128-0.16 0.32-0.288 0.448-12.576 12.416-32.832 12.352-45.28-0.192l-350.112-353.344c-12.448-12.576-12.352-32.8 0.192-45.248 6.24-6.176 14.4-9.28 22.528-9.28 8.224 0 16.48 3.168 22.72 9.472l327.84 330.816 332.48-329.408c6.24-6.176 14.368-9.28 22.528-9.28 8.256 0 16.48 3.168 22.72 9.472 12.448 12.544 12.352 32.8-0.192 45.248z" />
<glyph unicode="&#xe61c;" d="M890.336 629.088c-12.576 12.416-32.8 12.352-45.248-0.192l-327.84-330.848-332.416 329.44c-12.576 12.448-32.8 12.352-45.28-0.192-12.448-12.576-12.352-32.832 0.192-45.28l353.312-350.112c0.544-0.544 1.248-0.672 1.792-1.184 0.128-0.128 0.16-0.288 0.288-0.416 6.24-6.176 14.4-9.28 22.528-9.28 8.224 0 16.48 3.168 22.72 9.472l350.112 353.312c12.48 12.576 12.384 32.832-0.16 45.28z" />
<glyph unicode="&#xe61d;" d="M526.432 35.936c-20.96 0-44.16 12.576-68.96 37.344l-182.72 182.72h-82.752c-52.928 0-96 43.072-96 96v192c0 52.928 43.072 96 96 96h82.752l182.624 182.624c24.576 24.576 47.744 37.024 68.864 37.024 22.944 0 49.76-15.648 49.76-59.648v-704c0-44.352-26.72-60.064-49.568-60.064zM192 576c-17.632 0-32-14.368-32-32v-192c0-17.664 14.368-32 32-32h96c8.48 0 16.64-3.36 22.624-9.376l192.064-192.096c3.392-3.36 6.496-6.208 9.312-8.576v676.032c-2.784-2.336-5.952-5.184-9.376-8.608l-192-192c-5.984-6.016-14.144-9.376-22.624-9.376h-96zM687.584 229.632c-6.464 0-12.992 1.952-18.656 6.016-14.336 10.304-17.632 30.304-7.328 44.672l12.672 17.344c33.12 44.896 61.728 83.712 61.728 150.336 0 69.024-25.344 102.528-57.44 144.928-5.664 7.456-11.328 15.008-16.928 22.784-10.304 14.336-7.040 34.336 7.328 44.672 14.368 10.368 34.336 7.040 44.672-7.328 5.248-7.328 10.656-14.464 15.968-21.504 34.624-45.76 70.4-93.056 70.4-183.552 0-87.648-39.392-141.12-74.144-188.32l-12.224-16.736c-6.272-8.704-16.064-13.312-26.048-13.312zM796.448 120.992c-7.488 0-15.040 2.624-21.088 7.936-13.28 11.648-14.624 31.872-2.976 45.152 64.224 73.248 123.616 157.056 123.616 273.92s-59.392 200.704-123.616 273.888c-11.648 13.312-10.304 33.504 2.976 45.184 13.216 11.648 33.44 10.336 45.152-2.944 68.96-78.688 139.488-177.728 139.488-316.128s-70.528-237.472-139.488-316.096c-6.368-7.232-15.2-10.912-24.064-10.912z" />
<glyph unicode="&#xe61e;" d="M600.883 730.67h-407.643c0 0-331.207-150.551-101.922-382.225h152.872l-67.925-17.385-169.87-173.716h220.843l220.797 260.597c0 0 67.948 75.298 135.873 0l220.888-260.597h220.774l-237.841 277.959c0 0-28.285 28.968-101.922 17.408l237.841 277.959h-220.797l-237.818-277.959c0 0-181.202-14.518-271.792 0 0 0-73.569 98.441 67.994 156.308h220.774l118.875 121.651z" />
<glyph unicode="&#xe61f;" d="M684.608-29.44c-56.704 0-194.368 72.448-309.952 228.032-108.16 145.344-160.768 250.432-160.768 321.088 0 55.68 38.464 82.24 59.136 96.512l5.056 3.52c22.784 16.256 58.304 21.568 71.936 21.568 23.808 0 33.856-13.952 40-26.176 5.12-10.176 48-102.080 52.352-113.728 6.72-17.472 4.48-43.136-16.192-57.856l-3.584-2.496c-10.176-7.104-29.248-20.288-31.872-36.352-1.28-7.808 1.344-15.872 7.936-24.832 33.152-44.672 139.008-175.872 158.144-193.792 14.912-13.952 33.856-15.936 46.784-5.056 13.44 11.264 19.328 17.92 19.392 17.92 2.496 2.304 12.992 10.624 29.952 10.624 12.416 0 24.96-4.224 37.248-12.608 32.128-21.696 104.576-70.208 104.576-70.208 10.432-8.832 23.808-31.68 8.256-61.504-16.192-30.848-66.368-94.656-118.4-94.656zM350.016 616.512c-11.84 0-40.704-4.992-57.472-16.96l-5.376-3.712c-19.264-13.376-48.448-33.472-48.448-76.16 0-65.152 51.008-165.312 155.904-306.368 114.432-153.984 245.44-217.92 289.984-217.92 37.888 0 81.408 53.056 96.384 81.408 9.6 18.56 0.576 28.48-1.344 30.336-0.32 0.064-71.552 47.744-103.296 69.248-8.256 5.568-16.064 8.256-23.36 8.256-7.232 0-11.776-2.816-12.736-3.456-0.064-0.32-6.784-7.68-20.48-19.2-22.272-18.624-55.936-16.384-79.744 5.952-21.632 20.096-130.24 155.328-161.216 197.056-10.816 14.528-14.976 29.248-12.608 43.776 4.416 26.432 29.056 43.456 42.24 52.608l3.328 2.368c11.84 8.384 9.344 23.744 7.296 28.928-3.648 9.856-45.952 100.736-51.264 111.36-4.352 8.832-7.808 12.48-17.792 12.48z" />
<glyph unicode="&#xe620;" d="M800 0h-576c-52.928 0-96 43.072-96 96v640c0 52.928 43.072 96 96 96h448c17.696 0 32-14.336 32-32s-14.304-32-32-32h-448c-17.632 0-32-14.368-32-32v-640c0-17.664 14.368-32 32-32h576c17.664 0 32 14.336 32 32v512c0 17.664 14.304 32 32 32s32-14.336 32-32v-512c0-52.928-43.072-96-96-96zM612 512c-8.192 0-16.384 3.136-22.624 9.376-12.512 12.512-12.512 32.736 0 45.248l318.016 318.016c12.512 12.512 32.736 12.512 45.248 0s12.512-32.736 0-45.248l-318.016-318.016c-6.24-6.272-14.432-9.376-22.624-9.376zM480 512h-192c-17.664 0-32 14.336-32 32s14.336 32 32 32h192c17.664 0 32-14.336 32-32s-14.336-32-32-32zM672 320h-384c-17.664 0-32 14.304-32 32s14.336 32 32 32h384c17.696 0 32-14.304 32-32s-14.304-32-32-32z" />
<glyph unicode="&#xe621;" d="M512 352c-105.888 0-192 86.112-192 192s86.112 192 192 192 192-86.112 192-192-86.112-192-192-192zM512 672c-70.592 0-128-57.408-128-128s57.408-128 128-128c70.592 0 128 57.408 128 128s-57.408 128-128 128zM512 0c-7.936 0-15.904 2.944-22.080 8.832-12.768 12.224-13.248 32.48-1.056 45.248 86.528 90.72 311.136 355.584 311.136 489.92 0 158.784-129.184 288-288 288-158.784 0-288-129.216-288-288 0-75.616 72.544-206.080 204.256-367.424 11.2-13.728 9.152-33.888-4.544-45.024-13.696-11.168-33.888-9.152-45.024 4.544-145.12 177.728-218.688 314.976-218.688 407.904 0 194.080 157.92 352 352 352s352-157.92 352-352c0-187.36-315.424-520.032-328.832-534.080-6.304-6.592-14.72-9.92-23.168-9.92z" />
<glyph unicode="&#xe622;" d="M785.472-20.672h-546.4c-45.216 0-81.984 36.736-81.984 81.984v764.928c0 45.184 36.768 81.952 81.984 81.952h546.4c45.216 0 81.984-36.768 81.984-81.952v-764.96c-0.032-45.216-36.768-81.952-81.984-81.952v0zM239.072 853.568c-15.104 0-27.328-12.256-27.328-27.328v-764.96c0-15.104 12.224-27.328 27.328-27.328h546.4c15.072 0 27.328 12.256 27.328 27.328v764.96c0 15.072-12.288 27.328-27.328 27.328h-546.4zM738.752 551.84h-452.96c-27.136 0-49.184 23.136-49.184 51.584v137.216c0 28.48 22.048 51.616 49.184 51.616h452.96c27.136 0 49.152-23.136 49.152-51.616v-137.216c0-28.448-22.016-51.584-49.152-51.584v0zM291.264 606.464h442.016v131.168h-442.016v-131.168zM401.6 411.552c0-12.064-9.76-21.824-21.856-21.824h-93.952c-12.064 0-21.856 9.76-21.856 21.824v27.168c0 12.096 9.792 21.888 21.856 21.888h93.984c12.096 0 21.856-9.792 21.856-21.888v-27.168h-0.032zM584.416 411.552c0-12.064-9.824-21.824-21.856-21.824h-94.016c-12.064 0-21.824 9.76-21.824 21.824v27.168c0 12.096 9.76 21.888 21.824 21.888h94.016c12.032 0 21.856-9.792 21.856-21.888v-27.168zM760.608 411.552c0-12.064-9.792-21.824-21.856-21.824h-93.984c-12.096 0-21.888 9.76-21.888 21.824v27.168c0 12.096 9.792 21.888 21.888 21.888h93.984c12.064 0 21.856-9.792 21.856-21.888v-27.168zM401.6 279.36c0-12.064-9.76-21.824-21.856-21.824h-93.952c-12.064 0-21.856 9.76-21.856 21.824v27.168c0 12.096 9.792 21.888 21.856 21.888h93.984c12.096 0 21.856-9.792 21.856-21.888v-27.168h-0.032zM584.416 279.36c0-12.064-9.824-21.824-21.856-21.824h-94.016c-12.064 0-21.824 9.76-21.824 21.824v27.168c0 12.096 9.76 21.888 21.824 21.888h94.016c12.032 0 21.856-9.792 21.856-21.888v-27.168zM760.608 279.36c0-12.064-9.792-21.824-21.856-21.824h-93.984c-12.096 0-21.888 9.76-21.888 21.824v27.168c0 12.096 9.792 21.888 21.888 21.888h93.984c12.064 0 21.856-9.792 21.856-21.888v-27.168zM401.6 147.36c0-12.064-9.76-21.824-21.856-21.824h-93.952c-12.064 0-21.856 9.76-21.856 21.824v27.168c0 12.096 9.792 21.888 21.856 21.888h93.984c12.096 0 21.856-9.792 21.856-21.888v-27.168h-0.032zM584.416 147.36c0-12.064-9.824-21.824-21.856-21.824h-94.016c-12.064 0-21.824 9.76-21.824 21.824v27.168c0 12.096 9.76 21.888 21.824 21.888h94.016c12.032 0 21.856-9.792 21.856-21.888v-27.168zM760.608 147.36c0-12.064-9.792-21.824-21.856-21.824h-93.984c-12.096 0-21.888 9.76-21.888 21.824v27.168c0 12.096 9.792 21.888 21.888 21.888h93.984c12.064 0 21.856-9.792 21.856-21.888v-27.168z" />
<glyph unicode="&#xe623;" d="M512.32 629.376c33.472 0 60.544 27.072 60.544 60.544s-27.072 60.544-60.544 60.544c-33.408 0-60.544-27.072-60.544-60.544s27.136-60.544 60.544-60.544zM572.864 588.992h-121.088v-40.384h40.32v-323.008h-40.32v-40.256h161.472v40.256h-40.384v363.392zM512.32 952.32c-278.656 0-504.64-225.92-504.64-504.64 0-278.784 225.984-504.704 504.64-504.704 278.72 0 504.704 225.856 504.704 504.704 0 278.784-225.984 504.64-504.704 504.64zM512.32-16.64c-256.064 0-464.256 208.32-464.256 464.32s208.192 464.256 464.256 464.256 464.32-208.256 464.32-464.256-208.256-464.32-464.32-464.32z" />
<glyph unicode="&#xe625;" d="M982.976 791.872c-22.4 22.72-58.624 22.72-81.024 0l-537.792-550.144-242.24 246.208c-22.336 22.72-58.624 22.72-80.96 0-22.4-22.72-22.4-59.648 0-82.368l283.52-288.256c22.4-22.72 58.688-22.72 81.024 0 1.344 1.344 1.792 3.136 2.944 4.48l574.528 587.776c22.4 22.656 22.4 59.52 0 82.304z" />
<glyph unicode="&#xe626;" d="M547.616 435.598l359.953 359.953c9.941 9.941 9.941 26.084 0 36.027-9.993 9.941-26.032 9.941-36.026 0l-359.953-360.004-359.953 360.004c-9.941 9.941-26.084 9.941-36.026 0s-9.941-26.033 0-36.027l360.004-359.953-359.953-359.953c-9.941-9.993-9.941-26.032 0-36.026 9.941-9.941 26.033-9.941 36.026 0l359.953 359.953 359.953-359.953c9.993-9.941 26.032-9.941 36.026 0 9.941 9.993 9.941 26.032 0 36.026l-360.004 359.953z" />
<glyph unicode="&#xe629;" d="M691.008 610.56c11.52 0 22.976-0.832 34.368-2.048-30.848 144.128-185.088 251.264-361.024 251.264-196.736 0-357.824-134.080-357.824-304.256 0-98.24 53.632-179.008 143.232-241.472l-35.84-107.776 125.12 62.72c44.736-8.896 80.64-17.984 125.312-17.984 11.2 0 22.4 0.512 33.344 1.344-6.912 24-10.944 49.024-10.944 75.008 0 156.416 134.272 283.2 304.256 283.2zM498.56 707.648c27.008 0 44.736-17.728 44.736-44.672 0-26.816-17.728-44.8-44.736-44.8-26.816 0-53.696 17.984-53.696 44.8-0.064 26.944 26.88 44.672 53.696 44.672zM248.064 618.176c-26.816 0-53.888 17.984-53.888 44.8 0 26.944 27.008 44.672 53.888 44.672 26.816 0 44.672-17.728 44.672-44.672 0.064-26.816-17.856-44.8-44.672-44.8zM1017.472 331.776c0 143.040-143.104 259.648-304 259.648-170.24 0-304.192-116.608-304.192-259.648 0-143.232 134.016-259.648 304.192-259.648 35.776 0 71.616 9.024 107.52 17.856l98.112-53.76-26.88 89.344c71.808 54.080 125.248 125.44 125.248 206.208zM614.848 376.512c-17.856 0-35.776 17.728-35.776 35.776 0 17.856 17.856 35.84 35.776 35.84 27.136 0 44.864-17.984 44.864-35.84 0.064-18.048-17.728-35.776-44.864-35.776zM811.776 376.512c-17.728 0-35.52 17.728-35.52 35.776 0 17.856 17.728 35.84 35.52 35.84 26.88 0 44.736-17.984 44.736-35.84 0-18.048-17.856-35.776-44.736-35.776z" />
<glyph unicode="&#xe62a;" d="M953.504 51.744l-152.608 163.296c61.856 74.496 95.872 167.36 95.872 265.12 0 229.344-186.624 415.968-416.032 415.968-229.344 0-415.968-186.592-415.968-415.968s186.624-415.968 416-415.968c60.096 0.032 118.048 12.576 172.224 37.248 16.096 7.328 23.2 26.304 15.872 42.368-7.328 16.128-26.4 23.264-42.368 15.872-45.856-20.864-94.88-31.456-145.76-31.488-194.080 0-351.968 157.888-351.968 351.968 0 194.048 157.888 351.968 351.968 351.968 194.112 0 352.032-157.888 352.032-351.968 0-91.36-34.848-177.92-98.080-243.744-12.256-12.736-11.84-32.992 0.864-45.248 0.96-0.928 2.208-1.28 3.296-2.080 0.864-1.28 1.312-2.752 2.4-3.904l165.504-177.088c6.272-6.752 14.816-10.144 23.36-10.144 7.84 0 15.68 2.848 21.856 8.64 12.896 12 13.6 32.256 1.536 45.152z" />
<glyph unicode="&#xe62b;" d="M464 159.648c0 26.51 21.49 48 48 48s48-21.49 48-48c0-26.51-21.49-48-48-48s-48 21.49-48 48zM512-16c-247.040 0-448 200.96-448 448s200.96 448 448 448 448-200.96 448-448-200.96-448-448-448zM512 815.712c-211.584 0-383.712-172.128-383.712-383.712 0-211.552 172.128-383.712 383.712-383.712 211.552 0 383.712 172.16 383.712 383.712 0 211.584-172.16 383.712-383.712 383.712zM512 270.304c-17.664 0-32 14.336-32 32v54.112c0 52.352 40 92.352 75.328 127.648 25.888 25.92 52.672 52.672 52.672 74.016 0 53.344-43.072 96.736-96 96.736-53.824 0-96-41.536-96-94.56 0-17.664-14.336-32-32-32s-32 14.336-32 32c0 87.424 71.776 158.56 160 158.56s160-72.096 160-160.736c0-47.904-36.32-84.192-71.424-119.296-27.84-27.776-56.576-56.512-56.576-82.336v-54.112c0-17.664-14.336-32.032-32-32.032z" />
<glyph unicode="&#xe62c;" d="M800 32h-576q-40 0-68 28t-28 68v640q0 40 28 68t68 28h576q40 0 68-28t28-68v-640q0-40-28-68t-68-28zM224 800q-13 0-22.5-9.5t-9.5-22.5v-640q0-13 9.5-22.5t22.5-9.5h576q13 0 22.5 9.5t9.5 22.5v640q0 13-9.5 22.5t-22.5 9.5h-576zM641 415h-353q-13 0-22.5 9.5t-9.5 22.5 9.5 22.5 22.5 9.5h353q13 0 22.5-9.5t9.5-22.5-9.5-22.5-22.5-9.5zM735 224h-447q-14 0-23 9.5t-9 23 9 22.5 23 9h447q13 0 22.5-9t9.5-22.5-9.5-23-22.5-9.5zM256 655q0 20 14 34t34 14 34-14 14-34-14-34-34-14-34 14-14 34zM463 655q0 20 14 34t34 14 34-14 14-34-14-34-34-14-34 14-14 34zM671 655q0 20 14 34t34 14 34-14 14-34-14-34-34-14-34 14-14 34z" />
<glyph unicode="&#xe62d;" d="M851.616 108.384c42.88 42.88 76.992 93.952 102.336 153.184 25.376 59.296 38.048 121.472 38.048 186.464s-12.672 127.136-38.016 186.4c-25.344 59.296-59.456 110.368-102.336 153.216-42.88 42.88-93.888 76.96-153.216 102.304s-121.44 38.048-186.432 38.048c-64.992 0-127.136-12.672-186.432-38.016-59.264-25.376-110.336-59.456-153.216-102.336-42.848-42.848-76.928-93.92-102.304-153.216-25.344-59.264-38.048-121.408-38.048-186.4s12.704-127.168 38.016-186.464c25.376-59.264 59.456-110.304 102.304-153.184 42.88-42.88 93.952-76.96 153.216-102.304 59.328-25.344 121.472-38.080 186.464-38.080s127.104 12.736 186.4 38.048c59.36 25.344 110.336 59.456 153.216 102.336zM868.288 654.272c36.672-63.232 55.136-132 55.136-206.24 0-74.304-18.432-143.040-55.136-206.24-36.768-63.232-86.816-113.216-150.016-150.016-63.2-36.736-132-55.168-206.272-55.168s-143.008 18.4-206.24 55.168c-63.232 36.8-113.216 86.816-150.016 150.016s-55.168 131.936-55.168 206.24c0 74.24 18.368 143.008 55.168 206.24s86.784 113.216 150.016 149.984c63.232 36.8 131.968 55.2 206.24 55.2s143.104-18.4 206.272-55.2c63.2-36.8 113.216-86.784 150.016-149.984zM650.432 316.704c43.040-21.376 79.36-51.328 108.96-89.856 6.528-8.032 9.088-16.704 7.616-26.144-1.44-9.472-6.016-17.056-13.536-22.88-7.616-5.856-16.192-8.224-25.504-7.104-9.408 1.056-16.992 5.6-22.752 13.632-23.168 30.464-51.52 53.888-85.184 70.24-33.536 16.416-69.568 24.576-107.872 24.576-37.6 0-73.024-8.16-106.24-24.576-33.248-16.384-61.792-39.36-85.664-69.152-5.76-7.328-13.344-11.392-22.752-12.576-9.376-1.088-17.888 1.28-25.472 7.104s-11.904 13.408-12.992 22.848c-1.088 9.472 1.28 18.176 7.040 26.208 29.632 37.728 65.984 67.2 108.992 88.224 42.976 21.056 88.704 31.648 137.152 31.648 49.12 0.032 95.2-10.656 138.208-32.192zM410.208 496.224v68.576c0 14.304-4.992 26.432-15.008 36.448s-22.144 14.976-36.448 14.976c-14.272 0-26.432-4.96-36.416-14.976s-14.976-22.144-14.976-36.448v-68.576c0-14.272 5.024-26.432 14.976-36.416 10.016-10.016 22.144-15.040 36.416-15.040 14.304 0 26.432 5.024 36.448 15.040 10.016 9.984 15.008 22.144 15.008 36.416v0zM718.784 496.224v68.576c0 14.304-5.024 26.432-15.008 36.448-9.952 10.016-22.112 14.976-36.448 14.976-14.24 0-26.368-4.96-36.448-14.976-10.016-10.016-14.912-22.144-14.912-36.448v-68.576c0-14.272 4.896-26.432 14.912-36.416 10.048-10.016 22.176-15.040 36.448-15.040 14.304 0 26.496 5.024 36.448 15.040 9.984 9.984 15.008 22.144 15.008 36.416v0z" />
<glyph unicode="&#xe64a;" d="M511 0q-91 0-174 35.5t-143 95.5-95.5 143-35.5 174 35.5 174 95.5 143 143 95.5 174 35.5 174-35.5 143-95.5 95.5-143 35.5-174q0-46-9-90.5t-26-84-41.5-76-55-66.5-66.5-54.5-76-41.5-84-26-90-9zM511 832q-104 0-192.5-51.5t-140-140-51.5-192.5 51.5-192.5 140-140 192.5-51.5 192.5 51.5 140 140 51.5 192.5q0 39-8 77t-22.5 72-35.5 65.5-46.5 57-57 46.5-65.5 35.5-72 22.5-77 8zM512 187q-67 0-126.5 29t-100.5 81q-8 11-6.5 24t12.5 21q2 2 5.5 4t7 2.5 7 0.5 7-1 6.5-2.5 6-3.5 5-5q33-41 79-63.5t98-22.5q53 0 99.5 22.5t78.5 64.5q8 11 21 12.5t23.5-6.5 12.5-21-7-24q-27-35-63-60.5t-78-38.5-87-13zM368 445q-13 0-24 6.5t-17.5 17.5-6.5 24v64q0 20 14 34t34 14q13 0 24-6.5t17.5-17.5 6.5-24v-64q0-13-6.5-24t-17.5-17.5-24-6.5zM656 445q-20 0-34 14t-14 34v64q0 8 2.5 15t7 13 10.5 10.5 13 7 15 2.5q20 0 34-14t14-34v-64q0-20-14-34t-34-14z" />
<glyph unicode="&#xe6d0;" d="M513 95q-146 0-276.5 89.5t-197.5 234.5l-1 4q-2 3-2 6-1 2-1 4t-1 3l-1 8v6q1 8 2 11l2 8v2q1 1 1.5 2.5t0.5 2.5q67 145 197.5 234t277 89 277-89 196.5-235q1-1 2-4 0-1 1-1v-1l2-11v-2q1-1 1-4v-5q0-4-0.5-7t-0.5-6v-1q0-1-0.5-3.5t-1.5-4.5l-1-1q-1-4-3-7-65-144-196-233t-277-89zM98 443q60-128 174-206t241-78 241.5 78 173.5 206v1l1 1v5l-1 1q-59 128-173 206t-241.5 78-242-78-173.5-206v-8zM514 287l-13 3q-11 5-26 12.5t-44.5 26.5-51.5 39.5-39.5 50-17.5 59.5q0 67 40 101 17 15 39.5 21.5t34.5 5 18-0.5q13-2 21-12.5t6-24-13-21-24-5.5q-28 0-41-11-17-15-17-53 0-31 40.5-65.5t87.5-57.5q47 23 87.5 57.5t40.5 65.5q0 20-7 31.5t-26 26.5l-77-54q-11-7-24-4.5t-20.5 13.5-5 24 13.5 20l96 67q19 13 37-1l4-3q15-11 22.5-17t19-18 17-22.5 10-27 4.5-35.5q0-30-17.5-59.5t-39.5-50-51.5-39.5-44-26.5-26.5-12.5q-6-3-13-3z" />
<glyph unicode="&#xe6d3;" d="M929 672h-75q12 0 24 19.5t19 42.5q14 46-17 87-2 2-4 5-28 23-62 31t-64 3.5-62.5-18-53.5-26-41-26.5q-11-8-13.5-21t5-24 20.5-13.5 24 5.5l1 1 2 1q17 12 36.5 23t49.5 24 60.5 12 52.5-19q9-13 5-27-6-16-24-31.5t-32-20.5q-63-24-105-27-1 0-2.5-0.5t-2.5-0.5h-89q-1 0-2 2.5t-2 3.5q-109 101-127 113-88 61-164.5 70t-128.5-35l-5-5q-30-41-16-87 7-23 18.5-42.5t24.5-19.5h-82q-13 0-23-10t-10-23v-160q0-8 0.5-12.5t3.5-9.5 9.5-7.5 18.5-2.5v-313q0-42 27.5-72t65.5-30h646q38 0 65.5 30.5t27.5 71.5v313q12 0 18.5 2.5t9.5 7.5 3.5 9.5 0.5 12.5v160q0 14-9 23.5t-22 9.5zM357 673q-41 3-106 28-13 4-31 19.5t-23 32.5q-4 13 4 26 23 18 53.5 19.5t62.5-10.5 54.5-24 44.5-27q3-2 73-65h-126q-1 0-3 0.5t-3 0.5zM896 608v-96h-764q-4 0-4-1v97h768zM835 96h-646q-12 0-20.5 12t-8.5 26v314h704v-314q0-14-9-26t-20-12z" />
<glyph unicode="&#xe6ed;" d="M512 896q-185 0-316.5-131.5t-131.5-316.5 131.5-316.5 316.5-131.5 316.5 131.5 131.5 316.5-131.5 316.5-316.5 131.5zM512 64q-159 0-271.5 112.5t-112.5 271.5 112.5 271.5 271.5 112.5 271.5-112.5 112.5-271.5-112.5-271.5-271.5-112.5zM641 448q13 0 22.5 9.5t9.5 22.5-9.5 22.5-22.5 9.5h-97v15l119 124q9 10 8.5 23t-9.5 22q-5 5-11 7t-12 2-12-2.5-10-7.5l-102-107-107 108q-10 9-23 9t-23-9q-4-5-6.5-11t-3-12 2-12 7.5-11l118-118v-20h-95q-13 0-22.5-9.5t-9.5-22.5 9.5-22.5 22.5-9.5h95v-64h-95q-13 0-22.5-9.5t-9.5-22.5 9.5-22.5 22.5-9.5h95v-95q0-13 9.5-22.5t22.5-9.5 22.5 9.5 9.5 22.5v95h97q13 0 22.5 9.5t9.5 22.5-9.5 22.5-22.5 9.5h-97v64h97z" />
<glyph unicode="&#xe6f3;" d="M769 256q-54 0-91-38l-310 172q4 7 6.5 13.5t4.5 14 3 15 1 15.5q0 17-6 36l305 189q37-33 85-33 53 0 90.5 37.5t37.5 90.5-37.5 90.5-90.5 37.5-90.5-37.5-37.5-90.5q0-10 2-20.5t6-20.5l-302-188q-38 37-90 37-53 0-90.5-37.5t-37.5-90.5 37.5-90.5 90.5-37.5q38 0 70 21l321-179q-5-18-5-34 0-53 37.5-90.5t90.5-37.5 90.5 37.5 37.5 90.5-37.5 90.5-90.5 37.5zM767 832q27 0 45.5-19t18.5-45q0-10-3-20t-9-18-14-14-17.5-9-20.5-3q-26 0-45 18.5t-19 45.5q0 7 2 14.5t5 13.5 7.5 12 10 10 11.5 7.5 13.5 5 14.5 1.5zM191 448q0 27 19 45.5t45.5 18.5 45-18.5 18.5-45-18.5-45.5-45.5-19q-9 0-17 2.5t-15 6.5-13 10-10 13-6.5 15-2.5 17zM769 64q-27 0-45.5 19t-18.5 45q0 18 8.5 32.5t23 23 32.5 8.5q26 0 45-18.5t19-45.5q0-17-8.5-31.5t-23.5-23.5-32-9z" />
</font>
</defs>
</svg>
